<mxfile host="app.diagrams.net" agent="Mozilla/5.0 (Windows NT 10.0; Win64; x64) AppleWebKit/537.36 (KHTML, like Gecko) Chrome/133.0.0.0 Safari/537.36" version="25.0.3">
  <diagram name="第 1 页" id="JYMscjsx1x9ziq6l6I2i">
    <mxGraphModel dx="1434" dy="1138" grid="0" gridSize="10" guides="1" tooltips="1" connect="1" arrows="1" fold="1" page="0" pageScale="1" pageWidth="827" pageHeight="1169" math="0" shadow="0">
      <root>
        <mxCell id="0" />
        <mxCell id="1" parent="0" />
        <mxCell id="sC6QhvrOR2ep6ZkoYe8O-3" value="" style="edgeStyle=orthogonalEdgeStyle;rounded=0;orthogonalLoop=1;jettySize=auto;html=1;labelBackgroundColor=none;strokeColor=#E07A5F;fontColor=default;" edge="1" parent="1" source="sC6QhvrOR2ep6ZkoYe8O-1" target="sC6QhvrOR2ep6ZkoYe8O-2">
          <mxGeometry relative="1" as="geometry" />
        </mxCell>
        <mxCell id="sC6QhvrOR2ep6ZkoYe8O-1" value="开始" style="strokeWidth=2;html=1;shape=mxgraph.flowchart.start_2;whiteSpace=wrap;labelBackgroundColor=none;fillColor=#F2CC8F;strokeColor=#E07A5F;fontColor=#393C56;" vertex="1" parent="1">
          <mxGeometry x="320" y="40" width="100" height="100" as="geometry" />
        </mxCell>
        <mxCell id="sC6QhvrOR2ep6ZkoYe8O-6" value="" style="edgeStyle=orthogonalEdgeStyle;rounded=0;orthogonalLoop=1;jettySize=auto;html=1;labelBackgroundColor=none;strokeColor=#E07A5F;fontColor=default;" edge="1" parent="1" source="sC6QhvrOR2ep6ZkoYe8O-2" target="sC6QhvrOR2ep6ZkoYe8O-5">
          <mxGeometry relative="1" as="geometry" />
        </mxCell>
        <mxCell id="sC6QhvrOR2ep6ZkoYe8O-7" value="Y" style="edgeLabel;html=1;align=center;verticalAlign=middle;resizable=0;points=[];labelBackgroundColor=none;fontColor=#393C56;" vertex="1" connectable="0" parent="sC6QhvrOR2ep6ZkoYe8O-6">
          <mxGeometry x="-0.3333" relative="1" as="geometry">
            <mxPoint as="offset" />
          </mxGeometry>
        </mxCell>
        <mxCell id="sC6QhvrOR2ep6ZkoYe8O-2" value="通知中rejectCode为空" style="rhombus;whiteSpace=wrap;html=1;strokeWidth=2;labelBackgroundColor=none;fillColor=#F2CC8F;strokeColor=#E07A5F;fontColor=#393C56;" vertex="1" parent="1">
          <mxGeometry x="330" y="230" width="80" height="80" as="geometry" />
        </mxCell>
        <mxCell id="sC6QhvrOR2ep6ZkoYe8O-4" value="com.zatech.bank.ekyc.provider.process.approve.service.noedit.AbstractManualApproveNoEditService&lt;div&gt;#getRejectCode(com.zatech.ekyc.share.dto.request.ApproveNoticeReqDTO, com.zatech.bank.ekyc.dao.dataobject.ProcessRejectReasonDO,&lt;/div&gt;&lt;div&gt;&amp;nbsp;com.zatech.bank.ekyc.dao.dataobject.EkycManualApproveDO)&lt;/div&gt;" style="text;html=1;align=center;verticalAlign=middle;whiteSpace=wrap;rounded=0;labelBackgroundColor=none;fontColor=#393C56;" vertex="1" parent="1">
          <mxGeometry x="121" y="-94" width="560" height="97.5" as="geometry" />
        </mxCell>
        <mxCell id="sC6QhvrOR2ep6ZkoYe8O-9" value="" style="edgeStyle=orthogonalEdgeStyle;rounded=0;orthogonalLoop=1;jettySize=auto;html=1;labelBackgroundColor=none;strokeColor=#E07A5F;fontColor=default;" edge="1" parent="1" source="sC6QhvrOR2ep6ZkoYe8O-5" target="sC6QhvrOR2ep6ZkoYe8O-8">
          <mxGeometry relative="1" as="geometry" />
        </mxCell>
        <mxCell id="sC6QhvrOR2ep6ZkoYe8O-5" value="根据caseType，rejectCategory，rejectReason,&lt;div&gt;processEkycFailOrRejectScene&lt;/div&gt;&lt;div&gt;查询t_audit_param&lt;/div&gt;" style="whiteSpace=wrap;html=1;strokeWidth=2;labelBackgroundColor=none;fillColor=#F2CC8F;strokeColor=#E07A5F;fontColor=#393C56;" vertex="1" parent="1">
          <mxGeometry x="268.5" y="400" width="203" height="78" as="geometry" />
        </mxCell>
        <mxCell id="sC6QhvrOR2ep6ZkoYe8O-11" value="" style="edgeStyle=orthogonalEdgeStyle;rounded=0;orthogonalLoop=1;jettySize=auto;html=1;labelBackgroundColor=none;strokeColor=#E07A5F;fontColor=default;" edge="1" parent="1" source="sC6QhvrOR2ep6ZkoYe8O-8" target="sC6QhvrOR2ep6ZkoYe8O-10">
          <mxGeometry relative="1" as="geometry" />
        </mxCell>
        <mxCell id="sC6QhvrOR2ep6ZkoYe8O-8" value="rejectCode：过滤出auditParam中满足caseRisk且caseContent的paramCategory，不存在则默认为空" style="whiteSpace=wrap;html=1;strokeWidth=2;labelBackgroundColor=none;fillColor=#F2CC8F;strokeColor=#E07A5F;fontColor=#393C56;" vertex="1" parent="1">
          <mxGeometry x="268.5" y="558" width="203" height="78" as="geometry" />
        </mxCell>
        <mxCell id="sC6QhvrOR2ep6ZkoYe8O-13" value="" style="edgeStyle=orthogonalEdgeStyle;rounded=0;orthogonalLoop=1;jettySize=auto;html=1;labelBackgroundColor=none;strokeColor=#E07A5F;fontColor=default;" edge="1" parent="1" source="sC6QhvrOR2ep6ZkoYe8O-10" target="sC6QhvrOR2ep6ZkoYe8O-12">
          <mxGeometry relative="1" as="geometry" />
        </mxCell>
        <mxCell id="sC6QhvrOR2ep6ZkoYe8O-14" value="Y" style="edgeLabel;html=1;align=center;verticalAlign=middle;resizable=0;points=[];labelBackgroundColor=none;fontColor=#393C56;" vertex="1" connectable="0" parent="sC6QhvrOR2ep6ZkoYe8O-13">
          <mxGeometry x="-0.2444" y="1" relative="1" as="geometry">
            <mxPoint as="offset" />
          </mxGeometry>
        </mxCell>
        <mxCell id="sC6QhvrOR2ep6ZkoYe8O-35" style="edgeStyle=orthogonalEdgeStyle;rounded=0;orthogonalLoop=1;jettySize=auto;html=1;exitX=1;exitY=0.5;exitDx=0;exitDy=0;labelBackgroundColor=none;strokeColor=#E07A5F;fontColor=default;" edge="1" parent="1" source="sC6QhvrOR2ep6ZkoYe8O-10" target="sC6QhvrOR2ep6ZkoYe8O-30">
          <mxGeometry relative="1" as="geometry" />
        </mxCell>
        <mxCell id="sC6QhvrOR2ep6ZkoYe8O-36" value="N" style="edgeLabel;html=1;align=center;verticalAlign=middle;resizable=0;points=[];labelBackgroundColor=none;fontColor=#393C56;" vertex="1" connectable="0" parent="sC6QhvrOR2ep6ZkoYe8O-35">
          <mxGeometry x="-0.7951" y="2" relative="1" as="geometry">
            <mxPoint as="offset" />
          </mxGeometry>
        </mxCell>
        <mxCell id="sC6QhvrOR2ep6ZkoYe8O-10" value="rejectCode为空" style="rhombus;whiteSpace=wrap;html=1;strokeWidth=2;labelBackgroundColor=none;fillColor=#F2CC8F;strokeColor=#E07A5F;fontColor=#393C56;" vertex="1" parent="1">
          <mxGeometry x="330" y="715" width="80" height="80" as="geometry" />
        </mxCell>
        <mxCell id="sC6QhvrOR2ep6ZkoYe8O-16" value="" style="edgeStyle=orthogonalEdgeStyle;rounded=0;orthogonalLoop=1;jettySize=auto;html=1;labelBackgroundColor=none;strokeColor=#E07A5F;fontColor=default;" edge="1" parent="1" source="sC6QhvrOR2ep6ZkoYe8O-12" target="sC6QhvrOR2ep6ZkoYe8O-15">
          <mxGeometry relative="1" as="geometry" />
        </mxCell>
        <mxCell id="sC6QhvrOR2ep6ZkoYe8O-12" value="rejectCode：过滤出auditParam中满足caseRisk的paramCategory，不存在则默认为空" style="whiteSpace=wrap;html=1;strokeWidth=2;labelBackgroundColor=none;fillColor=#F2CC8F;strokeColor=#E07A5F;fontColor=#393C56;" vertex="1" parent="1">
          <mxGeometry x="265.25" y="887" width="209.5" height="74" as="geometry" />
        </mxCell>
        <mxCell id="sC6QhvrOR2ep6ZkoYe8O-18" value="" style="edgeStyle=orthogonalEdgeStyle;rounded=0;orthogonalLoop=1;jettySize=auto;html=1;labelBackgroundColor=none;strokeColor=#E07A5F;fontColor=default;" edge="1" parent="1" source="sC6QhvrOR2ep6ZkoYe8O-15" target="sC6QhvrOR2ep6ZkoYe8O-17">
          <mxGeometry relative="1" as="geometry" />
        </mxCell>
        <mxCell id="sC6QhvrOR2ep6ZkoYe8O-19" value="Y" style="edgeLabel;html=1;align=center;verticalAlign=middle;resizable=0;points=[];labelBackgroundColor=none;fontColor=#393C56;" vertex="1" connectable="0" parent="sC6QhvrOR2ep6ZkoYe8O-18">
          <mxGeometry x="0.0222" relative="1" as="geometry">
            <mxPoint as="offset" />
          </mxGeometry>
        </mxCell>
        <mxCell id="sC6QhvrOR2ep6ZkoYe8O-33" style="edgeStyle=orthogonalEdgeStyle;rounded=0;orthogonalLoop=1;jettySize=auto;html=1;exitX=1;exitY=0.5;exitDx=0;exitDy=0;labelBackgroundColor=none;strokeColor=#E07A5F;fontColor=default;" edge="1" parent="1" source="sC6QhvrOR2ep6ZkoYe8O-15" target="sC6QhvrOR2ep6ZkoYe8O-30">
          <mxGeometry relative="1" as="geometry" />
        </mxCell>
        <mxCell id="sC6QhvrOR2ep6ZkoYe8O-34" value="N" style="edgeLabel;html=1;align=center;verticalAlign=middle;resizable=0;points=[];labelBackgroundColor=none;fontColor=#393C56;" vertex="1" connectable="0" parent="sC6QhvrOR2ep6ZkoYe8O-33">
          <mxGeometry x="-0.499" y="4" relative="1" as="geometry">
            <mxPoint as="offset" />
          </mxGeometry>
        </mxCell>
        <mxCell id="sC6QhvrOR2ep6ZkoYe8O-15" value="rejectCode为空" style="rhombus;whiteSpace=wrap;html=1;strokeWidth=2;labelBackgroundColor=none;fillColor=#F2CC8F;strokeColor=#E07A5F;fontColor=#393C56;" vertex="1" parent="1">
          <mxGeometry x="330" y="1038" width="80" height="80" as="geometry" />
        </mxCell>
        <mxCell id="sC6QhvrOR2ep6ZkoYe8O-21" value="" style="edgeStyle=orthogonalEdgeStyle;rounded=0;orthogonalLoop=1;jettySize=auto;html=1;labelBackgroundColor=none;strokeColor=#E07A5F;fontColor=default;" edge="1" parent="1" source="sC6QhvrOR2ep6ZkoYe8O-17" target="sC6QhvrOR2ep6ZkoYe8O-20">
          <mxGeometry relative="1" as="geometry" />
        </mxCell>
        <mxCell id="sC6QhvrOR2ep6ZkoYe8O-17" value="rejectCode：过滤出auditParam中满足caseContent的paramCategory，不存在则默认为空" style="whiteSpace=wrap;html=1;strokeWidth=2;labelBackgroundColor=none;fillColor=#F2CC8F;strokeColor=#E07A5F;fontColor=#393C56;" vertex="1" parent="1">
          <mxGeometry x="255.5" y="1214" width="229" height="68" as="geometry" />
        </mxCell>
        <mxCell id="sC6QhvrOR2ep6ZkoYe8O-28" style="edgeStyle=orthogonalEdgeStyle;rounded=0;orthogonalLoop=1;jettySize=auto;html=1;exitX=0.5;exitY=1;exitDx=0;exitDy=0;labelBackgroundColor=none;strokeColor=#E07A5F;fontColor=default;" edge="1" parent="1" source="sC6QhvrOR2ep6ZkoYe8O-20" target="sC6QhvrOR2ep6ZkoYe8O-27">
          <mxGeometry relative="1" as="geometry" />
        </mxCell>
        <mxCell id="sC6QhvrOR2ep6ZkoYe8O-29" value="Y" style="edgeLabel;html=1;align=center;verticalAlign=middle;resizable=0;points=[];labelBackgroundColor=none;fontColor=#393C56;" vertex="1" connectable="0" parent="sC6QhvrOR2ep6ZkoYe8O-28">
          <mxGeometry x="0.0619" y="-2" relative="1" as="geometry">
            <mxPoint as="offset" />
          </mxGeometry>
        </mxCell>
        <mxCell id="sC6QhvrOR2ep6ZkoYe8O-31" style="edgeStyle=orthogonalEdgeStyle;rounded=0;orthogonalLoop=1;jettySize=auto;html=1;exitX=1;exitY=0.5;exitDx=0;exitDy=0;labelBackgroundColor=none;strokeColor=#E07A5F;fontColor=default;" edge="1" parent="1" source="sC6QhvrOR2ep6ZkoYe8O-20" target="sC6QhvrOR2ep6ZkoYe8O-30">
          <mxGeometry relative="1" as="geometry" />
        </mxCell>
        <mxCell id="sC6QhvrOR2ep6ZkoYe8O-32" value="N" style="edgeLabel;html=1;align=center;verticalAlign=middle;resizable=0;points=[];labelBackgroundColor=none;fontColor=#393C56;" vertex="1" connectable="0" parent="sC6QhvrOR2ep6ZkoYe8O-31">
          <mxGeometry x="-0.0336" relative="1" as="geometry">
            <mxPoint as="offset" />
          </mxGeometry>
        </mxCell>
        <mxCell id="sC6QhvrOR2ep6ZkoYe8O-20" value="rejectCode为空" style="rhombus;whiteSpace=wrap;html=1;strokeWidth=2;labelBackgroundColor=none;fillColor=#F2CC8F;strokeColor=#E07A5F;fontColor=#393C56;" vertex="1" parent="1">
          <mxGeometry x="330" y="1356" width="80" height="80" as="geometry" />
        </mxCell>
        <mxCell id="sC6QhvrOR2ep6ZkoYe8O-27" value="取params中第一条的paramCategory或者空" style="strokeWidth=2;html=1;shape=mxgraph.flowchart.terminator;whiteSpace=wrap;labelBackgroundColor=none;fillColor=#F2CC8F;strokeColor=#E07A5F;fontColor=#393C56;" vertex="1" parent="1">
          <mxGeometry x="320" y="1549" width="100" height="60" as="geometry" />
        </mxCell>
        <mxCell id="sC6QhvrOR2ep6ZkoYe8O-30" value="返回rejectCode" style="strokeWidth=2;html=1;shape=mxgraph.flowchart.terminator;whiteSpace=wrap;labelBackgroundColor=none;fillColor=#F2CC8F;strokeColor=#E07A5F;fontColor=#393C56;" vertex="1" parent="1">
          <mxGeometry x="559" y="1366" width="100" height="60" as="geometry" />
        </mxCell>
        <mxCell id="sC6QhvrOR2ep6ZkoYe8O-37" style="edgeStyle=orthogonalEdgeStyle;rounded=0;orthogonalLoop=1;jettySize=auto;html=1;exitX=1;exitY=0.5;exitDx=0;exitDy=0;entryX=0.5;entryY=0;entryDx=0;entryDy=0;entryPerimeter=0;labelBackgroundColor=none;strokeColor=#E07A5F;fontColor=default;" edge="1" parent="1" source="sC6QhvrOR2ep6ZkoYe8O-2" target="sC6QhvrOR2ep6ZkoYe8O-30">
          <mxGeometry relative="1" as="geometry" />
        </mxCell>
        <mxCell id="sC6QhvrOR2ep6ZkoYe8O-38" value="N" style="edgeLabel;html=1;align=center;verticalAlign=middle;resizable=0;points=[];labelBackgroundColor=none;fontColor=#393C56;" vertex="1" connectable="0" parent="sC6QhvrOR2ep6ZkoYe8O-37">
          <mxGeometry x="-0.8842" y="-2" relative="1" as="geometry">
            <mxPoint as="offset" />
          </mxGeometry>
        </mxCell>
        <mxCell id="sC6QhvrOR2ep6ZkoYe8O-39" value="com.zatech.bank.ekyc.provider.process.approve.service.noedit.impl.mcv.&lt;div&gt;AbstractMcvPrManualApproveNoEditService#getRejectCode&lt;/div&gt;" style="text;html=1;align=center;verticalAlign=middle;whiteSpace=wrap;rounded=0;labelBackgroundColor=none;fontColor=#393C56;" vertex="1" parent="1">
          <mxGeometry x="1004" y="-94" width="560" height="97.5" as="geometry" />
        </mxCell>
        <mxCell id="sC6QhvrOR2ep6ZkoYe8O-43" value="" style="edgeStyle=orthogonalEdgeStyle;rounded=0;orthogonalLoop=1;jettySize=auto;html=1;strokeColor=#E07A5F;fontColor=#393C56;fillColor=#F2CC8F;" edge="1" parent="1" source="sC6QhvrOR2ep6ZkoYe8O-41" target="sC6QhvrOR2ep6ZkoYe8O-42">
          <mxGeometry relative="1" as="geometry" />
        </mxCell>
        <mxCell id="sC6QhvrOR2ep6ZkoYe8O-41" value="开始" style="strokeWidth=2;html=1;shape=mxgraph.flowchart.start_2;whiteSpace=wrap;strokeColor=#E07A5F;fontColor=#393C56;fillColor=#F2CC8F;" vertex="1" parent="1">
          <mxGeometry x="1251" y="40" width="100" height="100" as="geometry" />
        </mxCell>
        <mxCell id="sC6QhvrOR2ep6ZkoYe8O-45" value="" style="edgeStyle=orthogonalEdgeStyle;rounded=0;orthogonalLoop=1;jettySize=auto;html=1;strokeColor=#E07A5F;fontColor=#393C56;fillColor=#F2CC8F;" edge="1" parent="1" source="sC6QhvrOR2ep6ZkoYe8O-42" target="sC6QhvrOR2ep6ZkoYe8O-44">
          <mxGeometry relative="1" as="geometry" />
        </mxCell>
        <mxCell id="sC6QhvrOR2ep6ZkoYe8O-42" value="根据caseType，rejectCategory，rejectReason,&lt;div&gt;&lt;span style=&quot;background-color: initial;&quot;&gt;查询t_audit_param&lt;/span&gt;&lt;/div&gt;" style="whiteSpace=wrap;html=1;fillColor=#F2CC8F;strokeColor=#E07A5F;fontColor=#393C56;strokeWidth=2;" vertex="1" parent="1">
          <mxGeometry x="1241" y="240" width="120" height="60" as="geometry" />
        </mxCell>
        <mxCell id="sC6QhvrOR2ep6ZkoYe8O-47" style="edgeStyle=orthogonalEdgeStyle;rounded=0;orthogonalLoop=1;jettySize=auto;html=1;exitX=1;exitY=0.5;exitDx=0;exitDy=0;strokeColor=#E07A5F;fontColor=#393C56;fillColor=#F2CC8F;" edge="1" parent="1" source="sC6QhvrOR2ep6ZkoYe8O-44" target="sC6QhvrOR2ep6ZkoYe8O-46">
          <mxGeometry relative="1" as="geometry" />
        </mxCell>
        <mxCell id="sC6QhvrOR2ep6ZkoYe8O-48" value="Y" style="edgeLabel;html=1;align=center;verticalAlign=middle;resizable=0;points=[];strokeColor=#E07A5F;fontColor=#393C56;fillColor=#F2CC8F;" vertex="1" connectable="0" parent="sC6QhvrOR2ep6ZkoYe8O-47">
          <mxGeometry x="-0.1558" relative="1" as="geometry">
            <mxPoint as="offset" />
          </mxGeometry>
        </mxCell>
        <mxCell id="sC6QhvrOR2ep6ZkoYe8O-52" value="" style="edgeStyle=orthogonalEdgeStyle;rounded=0;orthogonalLoop=1;jettySize=auto;html=1;strokeColor=#E07A5F;fontColor=#393C56;fillColor=#F2CC8F;" edge="1" parent="1" source="sC6QhvrOR2ep6ZkoYe8O-44" target="sC6QhvrOR2ep6ZkoYe8O-51">
          <mxGeometry relative="1" as="geometry" />
        </mxCell>
        <mxCell id="sC6QhvrOR2ep6ZkoYe8O-53" value="N" style="edgeLabel;html=1;align=center;verticalAlign=middle;resizable=0;points=[];strokeColor=#E07A5F;fontColor=#393C56;fillColor=#F2CC8F;" vertex="1" connectable="0" parent="sC6QhvrOR2ep6ZkoYe8O-52">
          <mxGeometry x="-0.275" relative="1" as="geometry">
            <mxPoint as="offset" />
          </mxGeometry>
        </mxCell>
        <mxCell id="sC6QhvrOR2ep6ZkoYe8O-44" value="auditParam为空" style="rhombus;whiteSpace=wrap;html=1;fillColor=#F2CC8F;strokeColor=#E07A5F;fontColor=#393C56;strokeWidth=2;" vertex="1" parent="1">
          <mxGeometry x="1261" y="370" width="80" height="80" as="geometry" />
        </mxCell>
        <mxCell id="sC6QhvrOR2ep6ZkoYe8O-46" value="返回空字符串" style="strokeWidth=2;html=1;shape=mxgraph.flowchart.terminator;whiteSpace=wrap;strokeColor=#E07A5F;fontColor=#393C56;fillColor=#F2CC8F;" vertex="1" parent="1">
          <mxGeometry x="1495" y="380" width="100" height="60" as="geometry" />
        </mxCell>
        <mxCell id="sC6QhvrOR2ep6ZkoYe8O-55" style="edgeStyle=orthogonalEdgeStyle;rounded=0;orthogonalLoop=1;jettySize=auto;html=1;exitX=1;exitY=0.5;exitDx=0;exitDy=0;strokeColor=#E07A5F;fontColor=#393C56;fillColor=#F2CC8F;" edge="1" parent="1" source="sC6QhvrOR2ep6ZkoYe8O-51" target="sC6QhvrOR2ep6ZkoYe8O-54">
          <mxGeometry relative="1" as="geometry" />
        </mxCell>
        <mxCell id="sC6QhvrOR2ep6ZkoYe8O-56" value="Y" style="edgeLabel;html=1;align=center;verticalAlign=middle;resizable=0;points=[];strokeColor=#E07A5F;fontColor=#393C56;fillColor=#F2CC8F;" vertex="1" connectable="0" parent="sC6QhvrOR2ep6ZkoYe8O-55">
          <mxGeometry x="-0.1429" y="-2" relative="1" as="geometry">
            <mxPoint as="offset" />
          </mxGeometry>
        </mxCell>
        <mxCell id="sC6QhvrOR2ep6ZkoYe8O-58" value="" style="edgeStyle=orthogonalEdgeStyle;rounded=0;orthogonalLoop=1;jettySize=auto;html=1;strokeColor=#E07A5F;fontColor=#393C56;fillColor=#F2CC8F;" edge="1" parent="1" source="sC6QhvrOR2ep6ZkoYe8O-51" target="sC6QhvrOR2ep6ZkoYe8O-60">
          <mxGeometry relative="1" as="geometry">
            <mxPoint x="1301" y="706" as="targetPoint" />
            <Array as="points">
              <mxPoint x="1301" y="658" />
              <mxPoint x="1302" y="658" />
            </Array>
          </mxGeometry>
        </mxCell>
        <mxCell id="sC6QhvrOR2ep6ZkoYe8O-59" value="N" style="edgeLabel;html=1;align=center;verticalAlign=middle;resizable=0;points=[];strokeColor=#E07A5F;fontColor=#393C56;fillColor=#F2CC8F;" vertex="1" connectable="0" parent="sC6QhvrOR2ep6ZkoYe8O-58">
          <mxGeometry x="-0.0833" y="-3" relative="1" as="geometry">
            <mxPoint as="offset" />
          </mxGeometry>
        </mxCell>
        <mxCell id="sC6QhvrOR2ep6ZkoYe8O-51" value="auditParam第一条记录的caseRisk为空" style="rhombus;whiteSpace=wrap;html=1;fillColor=#F2CC8F;strokeColor=#E07A5F;fontColor=#393C56;strokeWidth=2;" vertex="1" parent="1">
          <mxGeometry x="1261" y="530" width="80" height="80" as="geometry" />
        </mxCell>
        <mxCell id="sC6QhvrOR2ep6ZkoYe8O-54" value="返回第一条记录的paramCategory" style="strokeWidth=2;html=1;shape=mxgraph.flowchart.terminator;whiteSpace=wrap;strokeColor=#E07A5F;fontColor=#393C56;fillColor=#F2CC8F;" vertex="1" parent="1">
          <mxGeometry x="1495" y="540" width="100" height="60" as="geometry" />
        </mxCell>
        <mxCell id="sC6QhvrOR2ep6ZkoYe8O-60" value="rejectCode：过滤出auditParam中满足caseRisk的第一条paramCategory，不存在则默认为空" style="strokeWidth=2;html=1;shape=mxgraph.flowchart.terminator;whiteSpace=wrap;strokeColor=#E07A5F;fontColor=#393C56;fillColor=#F2CC8F;" vertex="1" parent="1">
          <mxGeometry x="1211.5" y="719" width="179" height="67" as="geometry" />
        </mxCell>
        <mxCell id="sC6QhvrOR2ep6ZkoYe8O-61" value="com.zatech.bank.ekyc.provider.process.approve.service.noedit.impl.mcv.&lt;div&gt;McvTriggerEventByBankManualApproveNoEditServiceImpl#getRejectCode&lt;/div&gt;" style="text;html=1;align=center;verticalAlign=middle;whiteSpace=wrap;rounded=0;fontColor=#393C56;" vertex="1" parent="1">
          <mxGeometry x="1951" y="-81.75" width="466" height="73" as="geometry" />
        </mxCell>
        <mxCell id="sC6QhvrOR2ep6ZkoYe8O-64" value="" style="edgeStyle=orthogonalEdgeStyle;rounded=0;orthogonalLoop=1;jettySize=auto;html=1;strokeColor=#E07A5F;fontColor=#393C56;fillColor=#F2CC8F;" edge="1" parent="1" source="sC6QhvrOR2ep6ZkoYe8O-62" target="sC6QhvrOR2ep6ZkoYe8O-63">
          <mxGeometry relative="1" as="geometry" />
        </mxCell>
        <mxCell id="sC6QhvrOR2ep6ZkoYe8O-62" value="开始" style="strokeWidth=2;html=1;shape=mxgraph.flowchart.start_2;whiteSpace=wrap;strokeColor=#E07A5F;fontColor=#393C56;fillColor=#F2CC8F;" vertex="1" parent="1">
          <mxGeometry x="2151" y="40" width="100" height="100" as="geometry" />
        </mxCell>
        <mxCell id="sC6QhvrOR2ep6ZkoYe8O-66" value="" style="edgeStyle=orthogonalEdgeStyle;rounded=0;orthogonalLoop=1;jettySize=auto;html=1;strokeColor=#E07A5F;fontColor=#393C56;fillColor=#F2CC8F;" edge="1" parent="1" source="sC6QhvrOR2ep6ZkoYe8O-63" target="sC6QhvrOR2ep6ZkoYe8O-65">
          <mxGeometry relative="1" as="geometry" />
        </mxCell>
        <mxCell id="sC6QhvrOR2ep6ZkoYe8O-63" value="根据caseType，rejectCategory，rejectReason,&lt;div&gt;&lt;span style=&quot;background-color: initial;&quot;&gt;查询t_audit_param&lt;/span&gt;&lt;/div&gt;" style="whiteSpace=wrap;html=1;fillColor=#F2CC8F;strokeColor=#E07A5F;fontColor=#393C56;strokeWidth=2;" vertex="1" parent="1">
          <mxGeometry x="2141" y="240" width="120" height="60" as="geometry" />
        </mxCell>
        <mxCell id="sC6QhvrOR2ep6ZkoYe8O-68" style="edgeStyle=orthogonalEdgeStyle;rounded=0;orthogonalLoop=1;jettySize=auto;html=1;exitX=1;exitY=0.5;exitDx=0;exitDy=0;strokeColor=#E07A5F;fontColor=#393C56;fillColor=#F2CC8F;" edge="1" parent="1" source="sC6QhvrOR2ep6ZkoYe8O-65" target="sC6QhvrOR2ep6ZkoYe8O-67">
          <mxGeometry relative="1" as="geometry" />
        </mxCell>
        <mxCell id="sC6QhvrOR2ep6ZkoYe8O-69" value="Y" style="edgeLabel;html=1;align=center;verticalAlign=middle;resizable=0;points=[];strokeColor=#E07A5F;fontColor=#393C56;fillColor=#F2CC8F;" vertex="1" connectable="0" parent="sC6QhvrOR2ep6ZkoYe8O-68">
          <mxGeometry x="0.0976" y="-5" relative="1" as="geometry">
            <mxPoint as="offset" />
          </mxGeometry>
        </mxCell>
        <mxCell id="sC6QhvrOR2ep6ZkoYe8O-71" value="" style="edgeStyle=orthogonalEdgeStyle;rounded=0;orthogonalLoop=1;jettySize=auto;html=1;strokeColor=#E07A5F;fontColor=#393C56;fillColor=#F2CC8F;" edge="1" parent="1" source="sC6QhvrOR2ep6ZkoYe8O-65" target="sC6QhvrOR2ep6ZkoYe8O-70">
          <mxGeometry relative="1" as="geometry" />
        </mxCell>
        <mxCell id="sC6QhvrOR2ep6ZkoYe8O-72" value="N" style="edgeLabel;html=1;align=center;verticalAlign=middle;resizable=0;points=[];strokeColor=#E07A5F;fontColor=#393C56;fillColor=#F2CC8F;" vertex="1" connectable="0" parent="sC6QhvrOR2ep6ZkoYe8O-71">
          <mxGeometry x="-0.075" y="-2" relative="1" as="geometry">
            <mxPoint as="offset" />
          </mxGeometry>
        </mxCell>
        <mxCell id="sC6QhvrOR2ep6ZkoYe8O-65" value="auditParam为空" style="rhombus;whiteSpace=wrap;html=1;fillColor=#F2CC8F;strokeColor=#E07A5F;fontColor=#393C56;strokeWidth=2;" vertex="1" parent="1">
          <mxGeometry x="2161" y="370" width="80" height="80" as="geometry" />
        </mxCell>
        <mxCell id="sC6QhvrOR2ep6ZkoYe8O-67" value="返回空字符串" style="strokeWidth=2;html=1;shape=mxgraph.flowchart.terminator;whiteSpace=wrap;strokeColor=#E07A5F;fontColor=#393C56;fillColor=#F2CC8F;" vertex="1" parent="1">
          <mxGeometry x="2405" y="380" width="100" height="60" as="geometry" />
        </mxCell>
        <mxCell id="sC6QhvrOR2ep6ZkoYe8O-74" style="edgeStyle=orthogonalEdgeStyle;rounded=0;orthogonalLoop=1;jettySize=auto;html=1;exitX=1;exitY=0.5;exitDx=0;exitDy=0;strokeColor=#E07A5F;fontColor=#393C56;fillColor=#F2CC8F;" edge="1" parent="1" source="sC6QhvrOR2ep6ZkoYe8O-70" target="sC6QhvrOR2ep6ZkoYe8O-73">
          <mxGeometry relative="1" as="geometry" />
        </mxCell>
        <mxCell id="sC6QhvrOR2ep6ZkoYe8O-75" value="Y" style="edgeLabel;html=1;align=center;verticalAlign=middle;resizable=0;points=[];strokeColor=#E07A5F;fontColor=#393C56;fillColor=#F2CC8F;" vertex="1" connectable="0" parent="sC6QhvrOR2ep6ZkoYe8O-74">
          <mxGeometry x="0.2683" y="1" relative="1" as="geometry">
            <mxPoint as="offset" />
          </mxGeometry>
        </mxCell>
        <mxCell id="sC6QhvrOR2ep6ZkoYe8O-77" style="edgeStyle=orthogonalEdgeStyle;rounded=0;orthogonalLoop=1;jettySize=auto;html=1;exitX=0.5;exitY=1;exitDx=0;exitDy=0;strokeColor=#E07A5F;fontColor=#393C56;fillColor=#F2CC8F;" edge="1" parent="1" source="sC6QhvrOR2ep6ZkoYe8O-70" target="sC6QhvrOR2ep6ZkoYe8O-76">
          <mxGeometry relative="1" as="geometry" />
        </mxCell>
        <mxCell id="sC6QhvrOR2ep6ZkoYe8O-78" value="N" style="edgeLabel;html=1;align=center;verticalAlign=middle;resizable=0;points=[];strokeColor=#E07A5F;fontColor=#393C56;fillColor=#F2CC8F;" vertex="1" connectable="0" parent="sC6QhvrOR2ep6ZkoYe8O-77">
          <mxGeometry x="0.0078" y="-2" relative="1" as="geometry">
            <mxPoint as="offset" />
          </mxGeometry>
        </mxCell>
        <mxCell id="sC6QhvrOR2ep6ZkoYe8O-70" value="auditParam第一条记录的caseRisk为空" style="rhombus;whiteSpace=wrap;html=1;fillColor=#F2CC8F;strokeColor=#E07A5F;fontColor=#393C56;strokeWidth=2;" vertex="1" parent="1">
          <mxGeometry x="2161" y="530" width="80" height="80" as="geometry" />
        </mxCell>
        <mxCell id="sC6QhvrOR2ep6ZkoYe8O-73" value="返回第一条记录的paramCategory" style="strokeWidth=2;html=1;shape=mxgraph.flowchart.terminator;whiteSpace=wrap;strokeColor=#E07A5F;fontColor=#393C56;fillColor=#F2CC8F;" vertex="1" parent="1">
          <mxGeometry x="2405" y="540" width="100" height="60" as="geometry" />
        </mxCell>
        <mxCell id="sC6QhvrOR2ep6ZkoYe8O-76" value="rejectCode：过滤出auditParam中满足caseRisk且caseContent的paramCategory，不存在则默认为空" style="strokeWidth=2;html=1;shape=mxgraph.flowchart.terminator;whiteSpace=wrap;strokeColor=#E07A5F;fontColor=#393C56;fillColor=#F2CC8F;" vertex="1" parent="1">
          <mxGeometry x="2086" y="739" width="230" height="87" as="geometry" />
        </mxCell>
        <mxCell id="sC6QhvrOR2ep6ZkoYe8O-79" value="com.zatech.bank.ekyc.provider.process.approve.service.noedit.impl.mcv.&lt;div&gt;McvTriggerEventManualApproveNoEditServiceImpl#getRejectCode&lt;/div&gt;" style="text;html=1;align=center;verticalAlign=middle;whiteSpace=wrap;rounded=0;fontColor=#393C56;" vertex="1" parent="1">
          <mxGeometry x="2935" y="-78.25" width="593" height="66" as="geometry" />
        </mxCell>
        <mxCell id="sC6QhvrOR2ep6ZkoYe8O-82" value="" style="edgeStyle=orthogonalEdgeStyle;rounded=0;orthogonalLoop=1;jettySize=auto;html=1;strokeColor=#E07A5F;fontColor=#393C56;fillColor=#F2CC8F;" edge="1" parent="1" source="sC6QhvrOR2ep6ZkoYe8O-80" target="sC6QhvrOR2ep6ZkoYe8O-81">
          <mxGeometry relative="1" as="geometry" />
        </mxCell>
        <mxCell id="sC6QhvrOR2ep6ZkoYe8O-80" value="开始" style="strokeWidth=2;html=1;shape=mxgraph.flowchart.start_2;whiteSpace=wrap;strokeColor=#E07A5F;fontColor=#393C56;fillColor=#F2CC8F;" vertex="1" parent="1">
          <mxGeometry x="3171" y="20" width="100" height="100" as="geometry" />
        </mxCell>
        <mxCell id="sC6QhvrOR2ep6ZkoYe8O-84" value="" style="edgeStyle=orthogonalEdgeStyle;rounded=0;orthogonalLoop=1;jettySize=auto;html=1;strokeColor=#E07A5F;fontColor=#393C56;fillColor=#F2CC8F;" edge="1" parent="1" source="sC6QhvrOR2ep6ZkoYe8O-81" target="sC6QhvrOR2ep6ZkoYe8O-83">
          <mxGeometry relative="1" as="geometry" />
        </mxCell>
        <mxCell id="sC6QhvrOR2ep6ZkoYe8O-81" value="根据caseType，rejectCategory，rejectReason,&lt;div&gt;&lt;span style=&quot;background-color: initial;&quot;&gt;查询t_audit_param&lt;/span&gt;&lt;/div&gt;" style="whiteSpace=wrap;html=1;fillColor=#F2CC8F;strokeColor=#E07A5F;fontColor=#393C56;strokeWidth=2;" vertex="1" parent="1">
          <mxGeometry x="3161" y="220" width="120" height="60" as="geometry" />
        </mxCell>
        <mxCell id="sC6QhvrOR2ep6ZkoYe8O-86" style="edgeStyle=orthogonalEdgeStyle;rounded=0;orthogonalLoop=1;jettySize=auto;html=1;exitX=1;exitY=0.5;exitDx=0;exitDy=0;strokeColor=#E07A5F;fontColor=#393C56;fillColor=#F2CC8F;" edge="1" parent="1" source="sC6QhvrOR2ep6ZkoYe8O-83" target="sC6QhvrOR2ep6ZkoYe8O-85">
          <mxGeometry relative="1" as="geometry" />
        </mxCell>
        <mxCell id="sC6QhvrOR2ep6ZkoYe8O-87" value="Y" style="edgeLabel;html=1;align=center;verticalAlign=middle;resizable=0;points=[];strokeColor=#E07A5F;fontColor=#393C56;fillColor=#F2CC8F;" vertex="1" connectable="0" parent="sC6QhvrOR2ep6ZkoYe8O-86">
          <mxGeometry x="-0.1241" y="3" relative="1" as="geometry">
            <mxPoint as="offset" />
          </mxGeometry>
        </mxCell>
        <mxCell id="sC6QhvrOR2ep6ZkoYe8O-89" value="" style="edgeStyle=orthogonalEdgeStyle;rounded=0;orthogonalLoop=1;jettySize=auto;html=1;strokeColor=#E07A5F;fontColor=#393C56;fillColor=#F2CC8F;" edge="1" parent="1" source="sC6QhvrOR2ep6ZkoYe8O-83" target="sC6QhvrOR2ep6ZkoYe8O-88">
          <mxGeometry relative="1" as="geometry" />
        </mxCell>
        <mxCell id="sC6QhvrOR2ep6ZkoYe8O-90" value="N" style="edgeLabel;html=1;align=center;verticalAlign=middle;resizable=0;points=[];strokeColor=#E07A5F;fontColor=#393C56;fillColor=#F2CC8F;" vertex="1" connectable="0" parent="sC6QhvrOR2ep6ZkoYe8O-89">
          <mxGeometry x="-0.05" y="4" relative="1" as="geometry">
            <mxPoint as="offset" />
          </mxGeometry>
        </mxCell>
        <mxCell id="sC6QhvrOR2ep6ZkoYe8O-83" value="auditParam为空" style="rhombus;whiteSpace=wrap;html=1;fillColor=#F2CC8F;strokeColor=#E07A5F;fontColor=#393C56;strokeWidth=2;" vertex="1" parent="1">
          <mxGeometry x="3181" y="350" width="80" height="80" as="geometry" />
        </mxCell>
        <mxCell id="sC6QhvrOR2ep6ZkoYe8O-85" value="返回空字符串" style="strokeWidth=2;html=1;shape=mxgraph.flowchart.terminator;whiteSpace=wrap;strokeColor=#E07A5F;fontColor=#393C56;fillColor=#F2CC8F;" vertex="1" parent="1">
          <mxGeometry x="3398" y="360" width="100" height="60" as="geometry" />
        </mxCell>
        <mxCell id="sC6QhvrOR2ep6ZkoYe8O-88" value="auditParam第一条记录的caseRisk为空" style="rhombus;whiteSpace=wrap;html=1;fillColor=#F2CC8F;strokeColor=#E07A5F;fontColor=#393C56;strokeWidth=2;" vertex="1" parent="1">
          <mxGeometry x="3181" y="510" width="80" height="80" as="geometry" />
        </mxCell>
        <mxCell id="sC6QhvrOR2ep6ZkoYe8O-91" value="返回第一条记录的paramCategory" style="strokeWidth=2;html=1;shape=mxgraph.flowchart.terminator;whiteSpace=wrap;strokeColor=#E07A5F;fontColor=#393C56;fillColor=#F2CC8F;" vertex="1" parent="1">
          <mxGeometry x="3415" y="520" width="100" height="60" as="geometry" />
        </mxCell>
        <mxCell id="sC6QhvrOR2ep6ZkoYe8O-92" style="edgeStyle=orthogonalEdgeStyle;rounded=0;orthogonalLoop=1;jettySize=auto;html=1;exitX=1;exitY=0.5;exitDx=0;exitDy=0;entryX=0;entryY=0.5;entryDx=0;entryDy=0;entryPerimeter=0;strokeColor=#E07A5F;fontColor=#393C56;fillColor=#F2CC8F;" edge="1" parent="1" source="sC6QhvrOR2ep6ZkoYe8O-88" target="sC6QhvrOR2ep6ZkoYe8O-91">
          <mxGeometry relative="1" as="geometry" />
        </mxCell>
        <mxCell id="sC6QhvrOR2ep6ZkoYe8O-93" value="Y" style="edgeLabel;html=1;align=center;verticalAlign=middle;resizable=0;points=[];strokeColor=#E07A5F;fontColor=#393C56;fillColor=#F2CC8F;" vertex="1" connectable="0" parent="sC6QhvrOR2ep6ZkoYe8O-92">
          <mxGeometry y="2" relative="1" as="geometry">
            <mxPoint as="offset" />
          </mxGeometry>
        </mxCell>
        <mxCell id="sC6QhvrOR2ep6ZkoYe8O-94" value="rejectCode：过滤出auditParam中满足caseRisk的第一条paramCategory，不存在则默认为空" style="strokeWidth=2;html=1;shape=mxgraph.flowchart.terminator;whiteSpace=wrap;strokeColor=#E07A5F;fontColor=#393C56;fillColor=#F2CC8F;" vertex="1" parent="1">
          <mxGeometry x="3122" y="690" width="198" height="81" as="geometry" />
        </mxCell>
        <mxCell id="sC6QhvrOR2ep6ZkoYe8O-95" style="edgeStyle=orthogonalEdgeStyle;rounded=0;orthogonalLoop=1;jettySize=auto;html=1;exitX=0.5;exitY=1;exitDx=0;exitDy=0;entryX=0.5;entryY=0;entryDx=0;entryDy=0;entryPerimeter=0;strokeColor=#E07A5F;fontColor=#393C56;fillColor=#F2CC8F;" edge="1" parent="1" source="sC6QhvrOR2ep6ZkoYe8O-88" target="sC6QhvrOR2ep6ZkoYe8O-94">
          <mxGeometry relative="1" as="geometry" />
        </mxCell>
        <mxCell id="sC6QhvrOR2ep6ZkoYe8O-96" value="N" style="edgeLabel;html=1;align=center;verticalAlign=middle;resizable=0;points=[];strokeColor=#E07A5F;fontColor=#393C56;fillColor=#F2CC8F;" vertex="1" connectable="0" parent="sC6QhvrOR2ep6ZkoYe8O-95">
          <mxGeometry x="0.0667" y="-1" relative="1" as="geometry">
            <mxPoint as="offset" />
          </mxGeometry>
        </mxCell>
      </root>
    </mxGraphModel>
  </diagram>
</mxfile>
